<?xml version="1.0" encoding="UTF-8"?><svg id="Layer_1" xmlns="http://www.w3.org/2000/svg" viewBox="0 0 48 48"><defs><style>.cls-1,.cls-2{fill:none;}.cls-3{fill:#fff;}.cls-2{stroke:#fff;stroke-linecap:round;stroke-miterlimit:10;}</style></defs><g><path class="cls-2" d="M24.95,31.77c-1.25,4.09-5.06,7.07-9.57,7.07-5.53,0-10-4.48-10-10,0-3.31,1.61-6.25,4.09-8.07"/><path class="cls-2" d="M14.93,25.3c-3.92-1.35-6.73-5.08-6.73-9.46,0-5.53,4.48-10,10-10,4.29,0,7.96,2.71,9.38,6.51"/><path class="cls-2" d="M25.19,8.44c1.83-2.03,4.48-3.31,7.43-3.31,5.53,0,10,4.48,10,10,0,3.88-2.21,7.24-5.44,8.9l-.75,.42"/><path class="cls-2" d="M19.35,27.03c-1.22-1.25-1.98-2.96-1.98-4.85,0-3.83,3.11-6.94,6.94-6.94,2.4,0,4.51,1.21,5.75,3.06"/><path class="cls-3" d="M24.76,23.33s3.65,11.12,7.31,7.44-7.31-7.44-7.31-7.44Z"/><path class="cls-3" d="M20.62,33.88s11.37,2.78,10.18-2.27c-1.19-5.05-10.18,2.27-10.18,2.27Z"/><path class="cls-2" d="M34.54,32.64s4.96,2.52,2.55,10.22"/><path class="cls-3" d="M36.46,20.1s-6.28,5.95-4.93,8.73l-1.75,1.99-1.41,1.98,1.64,1.24s1.49-1.88,4.59-.84l.46-.84s-1.46-1.25-.47-2.46c3.34-2.32,1.87-9.79,1.87-9.79Z"/><path class="cls-3" d="M36.55,23.1c.08,.51,.12,1.03,.12,1.55,0,5.59-4.53,10.12-10.12,10.12-1.06,0-2.09-.16-3.05-.47l13.05-11.21Z"/></g><rect class="cls-1" x="-.02" y=".28" width="48" height="48"/></svg>