<?xml version="1.0" encoding="UTF-8"?><svg id="Layer_1" xmlns="http://www.w3.org/2000/svg" viewBox="0 0 48 48"><defs><style>.cls-1,.cls-2{fill:none;}.cls-3{fill:#fff;}.cls-2{stroke:#fff;stroke-miterlimit:10;}</style></defs><path class="cls-3" d="M38.35,12.98c.14-1.45,1.24-2.27,2.6-2.27,1.54,0,2.51,.86,2.51,2.21,0,.42-.08,1.21-.92,1.68,.32,.13,1.22,.59,1.22,1.91,0,1.64-1.27,2.57-2.85,2.57s-2.75-.95-2.88-2.48h1.56c.1,.66,.56,1.14,1.33,1.14,.9,0,1.28-.66,1.28-1.27s-.36-1.25-1.33-1.25h-.2v-1.13h.22c.77,0,1.09-.54,1.09-1.09,0-.64-.42-1.06-1.05-1.06-.55,0-1.07,.36-1.1,1.04h-1.46Z"/><line class="cls-2" x1="39.38" y1="35.29" x2="39.38" y2="29.92"/><line class="cls-2" x1="32.81" y1="35.29" x2="32.81" y2="29.92"/><line class="cls-2" x1="6.52" y1="32.5" x2="6.52" y2="29.92"/><path class="cls-3" d="M32.71,14.82l-2.39-3.78h1.87l1.4,2.48,1.48-2.48h1.87l-2.46,3.78,2.73,4.22h-1.87l-1.75-2.93-1.85,2.93h-1.87l2.83-4.22Z"/><g><g><ellipse class="cls-2" cx="15.48" cy="16.98" rx="4.58" ry="3.05"/><ellipse class="cls-2" cx="15.48" cy="16.98" rx="7.95" ry="5.28"/><ellipse class="cls-2" cx="15.48" cy="16.98" rx="11.82" ry="7.85"/><line class="cls-2" x1="9.63" y1="20.55" x2="9.63" y2="20.55"/><path class="cls-2" d="M3.66,27.38c0,4.34,5.29,7.85,11.82,7.85"/><polyline class="cls-2" points="15.27 35.23 43.99 35.23 43.99 24.83 15.34 24.83"/><line class="cls-2" x1="3.66" y1="17.4" x2="3.66" y2="27.38"/><line class="cls-2" x1="27.29" y1="16.98" x2="27.29" y2="24.9"/></g><line class="cls-2" x1="26.24" y1="35.29" x2="26.24" y2="29.92"/><line class="cls-2" x1="19.66" y1="35.29" x2="19.66" y2="29.92"/><line class="cls-2" x1="13.09" y1="35.29" x2="13.09" y2="29.92"/><rect class="cls-1" x="0" y=".07" width="48" height="48"/></g></svg>